<?xml version="1.0" standalone="no"?>
<!DOCTYPE svg PUBLIC "-//W3C//DTD SVG 20010904//EN"
 "http://www.w3.org/TR/2001/REC-SVG-20010904/DTD/svg10.dtd">
<svg version="1.0" xmlns="http://www.w3.org/2000/svg"
 width="512.000000pt" height="512.000000pt" viewBox="0 0 512.000000 512.000000"
 preserveAspectRatio="xMidYMid meet">

<g transform="translate(0.000000,512.000000) scale(0.100000,-0.100000)"
fill="#000000" stroke="none">
<path d="M2834 4786 c-65 -29 -64 -20 -64 -675 l0 -591 -1335 0 c-1132 0
-1341 -2 -1370 -14 -69 -29 -66 22 -63 -962 l3 -886 33 -29 32 -29 1350 0
1350 0 0 -591 c0 -512 2 -595 15 -624 32 -65 109 -78 172 -27 21 17 514 507
1095 1089 1146 1148 1092 1088 1055 1159 -23 44 -2157 2171 -2190 2184 -36 13
-45 12 -83 -4z"/>
</g>
</svg>
