<?xml version="1.0" standalone="no"?>
<!DOCTYPE svg PUBLIC "-//W3C//DTD SVG 20010904//EN"
 "http://www.w3.org/TR/2001/REC-SVG-20010904/DTD/svg10.dtd">
<svg version="1.0" xmlns="http://www.w3.org/2000/svg"
 width="512.000000pt" height="512.000000pt" viewBox="0 0 512.000000 512.000000"
 preserveAspectRatio="xMidYMid meet">

<g transform="translate(0.000000,512.000000) scale(0.100000,-0.100000)"
fill="#000000" stroke="none">
<path d="M1664 5110 c-12 -4 -31 -21 -43 -36 l-21 -27 0 -1348 0 -1349 -591 0
c-512 0 -595 -2 -624 -15 -65 -32 -78 -109 -27 -172 17 -21 507 -514 1089
-1095 1148 -1146 1088 -1092 1159 -1055 16 9 513 501 1106 1094 849 850 1077
1085 1083 1109 9 47 -15 97 -58 117 -31 15 -94 17 -626 17 l-591 0 0 1335 c0
1132 -2 1341 -14 1370 -29 68 20 65 -948 64 -480 0 -883 -4 -894 -9z"/>
</g>
</svg>
